<svg width="50" height="52" viewBox="0 0 50 52" fill="none" xmlns="http://www.w3.org/2000/svg">
<path d="M35.2151 28.1932H14.6954C14.3698 28.1932 14.114 27.9374 14.114 27.6119C14.114 27.2863 14.3698 27.0305 14.6954 27.0305H35.2039C35.5294 27.0305 35.7852 27.2863 35.7852 27.6119C35.7852 27.9374 35.5294 28.1932 35.2155 28.1932H35.2151ZM35.2151 24.1241H14.6954C14.3698 24.1241 14.114 23.8683 14.114 23.5428C14.114 23.2172 14.3698 22.9614 14.6954 22.9614H35.2039C35.5294 22.9614 35.7852 23.2172 35.7852 23.5428C35.7852 23.8683 35.5294 24.1241 35.2155 24.1241H35.2151Z" fill="#FF0000"/>
<path d="M13.5445 33.4828H12.2541C11.3009 33.4828 10.5217 32.7041 10.5217 31.7505V19.4147C10.5217 18.4615 11.3005 17.6824 12.2541 17.6824H13.5445C14.4977 17.6824 15.2768 18.4611 15.2768 19.4147V31.7505C15.2768 32.7041 14.5094 33.4828 13.5445 33.4828ZM12.2541 18.8451C11.9402 18.8451 11.6844 19.101 11.6844 19.4148V31.7618C11.6844 32.0756 11.9402 32.3314 12.2541 32.3314H13.5445C13.8583 32.3314 14.1141 32.0756 14.1141 31.7618V19.4148C14.1141 19.101 13.8583 18.8451 13.5445 18.8451H12.2541Z" fill="#FF0000"/>
<path d="M9.95145 31.2165H8.66108C7.70787 31.2165 6.92871 30.4377 6.92871 29.4841V21.6828C6.92871 20.7296 7.70749 19.9504 8.66108 19.9504H9.95145C10.9047 19.9504 11.6838 20.7292 11.6838 21.6828C11.6838 22.0083 11.428 22.2642 11.1025 22.2642C10.7769 22.2642 10.5211 22.0083 10.5211 21.6828C10.5211 21.369 10.2653 21.1131 9.95144 21.1131L8.66107 21.1135C8.34722 21.1135 8.09139 21.3693 8.09139 21.6832V29.4845C8.09139 29.7983 8.34722 30.0541 8.66107 30.0541H9.95144C10.2653 30.0541 10.5211 29.7983 10.5211 29.4845C10.5211 29.1589 10.7769 28.9031 11.1025 28.9031C11.428 28.9031 11.6838 29.1589 11.6838 29.4845C11.6838 30.4377 10.905 31.2165 9.95145 31.2165Z" fill="#FF0000"/>
<path d="M6.35917 29.6468H5.06879C4.11558 29.6468 3.33643 28.868 3.33643 27.9144V23.2524C3.33643 22.2992 4.1152 21.52 5.06879 21.52H6.35917C7.31237 21.52 8.09153 22.2988 8.09153 23.2524C8.09153 23.5779 7.83571 23.8337 7.51018 23.8337C7.18466 23.8337 6.92883 23.5779 6.92883 23.2524C6.92883 22.9385 6.67301 22.6827 6.35916 22.6827H5.06878C4.75493 22.6827 4.49911 22.9385 4.49911 23.2524V27.9144C4.49911 28.2283 4.75493 28.4841 5.06878 28.4841H6.35916C6.67301 28.4841 6.92883 28.2283 6.92883 27.9144C6.92883 27.5889 7.18466 27.3331 7.51018 27.3331C7.83571 27.3331 8.09153 27.5889 8.09153 27.9144C8.09153 28.868 7.31239 29.6468 6.35917 29.6468Z" fill="#FF0000"/>
<path d="M3.918 28.1932H0.581351C0.255824 28.1932 0 27.9374 0 27.6119V23.5428C0 23.2172 0.255824 22.9614 0.581351 22.9614H3.918C4.24353 22.9614 4.49935 23.2172 4.49935 23.5428C4.49935 23.8683 4.24353 24.1241 3.918 24.1241H1.16273V27.0305H3.918C4.24353 27.0305 4.49935 27.2863 4.49935 27.6118C4.49935 27.9373 4.24353 28.1932 3.918 28.1932Z" fill="#FF0000"/>
<path d="M35.2151 10.5211H14.6954C14.3698 10.5211 14.114 10.2653 14.114 9.93975C14.114 9.61422 14.3698 9.3584 14.6954 9.3584H35.2039C35.5294 9.3584 35.7852 9.61422 35.7852 9.93975C35.7852 10.2653 35.5294 10.5211 35.2155 10.5211H35.2151ZM35.2151 6.45201H14.6954C14.3698 6.45201 14.114 6.19619 14.114 5.87066C14.114 5.54513 14.3698 5.28931 14.6954 5.28931H35.2039C35.5294 5.28931 35.7852 5.54513 35.7852 5.87066C35.7852 6.19619 35.5294 6.45201 35.2155 6.45201H35.2151Z" fill="#FF0000"/>
<path d="M13.1492 15.8117H11.4169C10.2425 15.8117 9.28931 14.8585 9.28931 13.6841V2.12755C9.28931 0.953208 10.2425 0 11.4169 0H13.1492C14.3236 0 15.2768 0.953208 15.2768 2.12755V13.672C15.2768 14.8576 14.3236 15.8109 13.1492 15.8109V15.8117ZM11.4169 1.16276C10.8822 1.16276 10.452 1.59302 10.452 2.12764V13.6721C10.452 14.2067 10.8822 14.637 11.4169 14.637H13.1492C13.6839 14.637 14.1141 14.2067 14.1141 13.6721V2.12764C14.1141 1.593 13.6838 1.16276 13.1492 1.16276H11.4169Z" fill="#FF0000"/>
<path d="M8.32378 12.115H6.59142C5.41707 12.115 4.46387 11.1618 4.46387 9.98745V5.8253C4.46387 4.65096 5.41707 3.69775 6.59142 3.69775H8.32378C9.49813 3.69775 10.4513 4.65096 10.4513 5.8253C10.4513 6.15083 10.1955 6.40665 9.86998 6.40665C9.54446 6.40665 9.28863 6.15083 9.28863 5.8253C9.28863 5.29066 8.85837 4.86042 8.32375 4.86042L6.59138 4.86005C6.05674 4.86005 5.62649 5.29032 5.62649 5.82494V9.9754C5.62649 10.51 6.05676 10.9403 6.59138 10.9403H8.32375C8.85838 10.9403 9.28863 10.51 9.28863 9.9754C9.28863 9.64988 9.54446 9.39405 9.86998 9.39405C10.1955 9.39405 10.4513 9.64988 10.4513 9.9754C10.4513 11.1614 9.49813 12.115 8.32378 12.115Z" fill="#FF0000"/>
<path d="M38.4944 15.8117H36.7621C35.5877 15.8117 34.6345 14.8585 34.6345 13.6841V2.12755C34.6345 0.953208 35.5877 0 36.7621 0H38.4944C39.6688 0 40.622 0.953208 40.622 2.12755V13.672C40.622 14.8576 39.6688 15.8109 38.4944 15.8109V15.8117ZM36.7621 1.16276C36.2274 1.16276 35.7972 1.59302 35.7972 2.12764V13.6721C35.7972 14.2067 36.2275 14.637 36.7621 14.637H38.4944C39.0291 14.637 39.4593 14.2067 39.4593 13.6721V2.12764C39.4593 1.593 39.0291 1.16276 38.4944 1.16276H36.7621Z" fill="#FF0000"/>
<path d="M43.3309 12.115H41.5985C40.4242 12.115 39.4709 11.1618 39.4709 9.98745C39.4709 9.66192 39.7268 9.4061 40.0523 9.4061C40.3778 9.4061 40.6336 9.66192 40.6336 9.98745C40.6336 10.5221 41.0639 10.9523 41.5985 10.9523H43.3309C43.8655 10.9523 44.2958 10.5221 44.2958 9.98745V5.8253C44.2958 5.29066 43.8655 4.86042 43.3309 4.86042H41.5985C41.0639 4.86042 40.6336 5.29068 40.6336 5.8253C40.6336 6.15083 40.3778 6.40665 40.0523 6.40665C39.7268 6.40665 39.4709 6.15083 39.4709 5.8253C39.4709 4.65096 40.4242 3.69775 41.5985 3.69775H43.3309C44.5052 3.69775 45.4584 4.65096 45.4584 5.8253V9.97577C45.4584 11.1614 44.5048 12.115 43.3309 12.115Z" fill="#FF0000"/>
<path d="M35.2151 45.8765H14.6954C14.3698 45.8765 14.114 45.6206 14.114 45.2951C14.114 44.9696 14.3698 44.7138 14.6954 44.7138H35.2039C35.5294 44.7138 35.7852 44.9696 35.7852 45.2951C35.7852 45.6206 35.5294 45.8765 35.2155 45.8765H35.2151ZM35.2151 41.807H14.6954C14.3698 41.807 14.114 41.5512 14.114 41.2256C14.114 40.9001 14.3698 40.6443 14.6954 40.6443H35.2039C35.5294 40.6443 35.7852 40.9001 35.7852 41.2256C35.7852 41.5515 35.5294 41.807 35.2155 41.807H35.2151Z" fill="#FF0000"/>
<path d="M13.1492 51.1662H11.4169C10.2425 51.1662 9.28931 50.213 9.28931 49.0387V37.4943C9.28931 36.3199 10.2425 35.3667 11.4169 35.3667H13.1492C14.3236 35.3667 15.2768 36.3199 15.2768 37.4943V49.0387C15.2768 50.213 14.3236 51.1662 13.1492 51.1662ZM11.4169 36.5173C10.8822 36.5173 10.452 36.9476 10.452 37.4822V49.0266C10.452 49.5613 10.8822 49.9915 11.4169 49.9915H13.1492C13.6839 49.9915 14.1141 49.5613 14.1141 49.0266V37.4822C14.1141 36.9476 13.6838 36.5173 13.1492 36.5173H11.4169Z" fill="#FF0000"/>
<path d="M8.32378 47.4695H6.59142C5.41707 47.4695 4.46387 46.5163 4.46387 45.342V41.1915C4.46387 40.0172 5.41707 39.064 6.59142 39.064H8.32378C9.49813 39.064 10.4513 40.0172 10.4513 41.1915C10.4513 41.517 10.1955 41.7729 9.86998 41.7729C9.54446 41.7729 9.28863 41.517 9.28863 41.1915C9.28863 40.6569 8.85837 40.2266 8.32375 40.2266H6.59138C6.05674 40.2266 5.62649 40.6569 5.62649 41.1915V45.342C5.62649 45.8766 6.05676 46.3069 6.59138 46.3069H8.32375C8.85838 46.3069 9.28863 45.8766 9.28863 45.342C9.28863 45.0165 9.54446 44.7606 9.86998 44.7606C10.1955 44.7606 10.4513 45.0165 10.4513 45.342C10.4513 46.5163 9.49813 47.4695 8.32378 47.4695Z" fill="#FF0000"/>
<path d="M38.4944 51.1662H36.7621C35.5877 51.1662 34.6345 50.213 34.6345 49.0387V37.4943C34.6345 36.3199 35.5877 35.3667 36.7621 35.3667H38.4944C39.6688 35.3667 40.622 36.3199 40.622 37.4943V49.0387C40.622 50.213 39.6688 51.1662 38.4944 51.1662ZM36.7621 36.5173C36.2274 36.5173 35.7972 36.9476 35.7972 37.4822V49.0266C35.7972 49.5613 36.2275 49.9915 36.7621 49.9915H38.4944C39.0291 49.9915 39.4593 49.5613 39.4593 49.0266V37.4822C39.4593 36.9476 39.0291 36.5173 38.4944 36.5173H36.7621Z" fill="#FF0000"/>
<path d="M43.3309 47.4695H41.5985C40.4242 47.4695 39.4709 46.5163 39.4709 45.342C39.4709 45.0165 39.7268 44.7606 40.0523 44.7606C40.3778 44.7606 40.6336 45.0165 40.6336 45.342C40.6336 45.8766 41.0639 46.3069 41.5985 46.3069H43.3309C43.8655 46.3069 44.2958 45.8766 44.2958 45.342V41.1915C44.2958 40.6569 43.8655 40.2266 43.3309 40.2266H41.5985C41.0639 40.2266 40.6336 40.6569 40.6336 41.1915C40.6336 41.517 40.3778 41.7729 40.0523 41.7729C39.7268 41.7729 39.4709 41.517 39.4709 41.1915C39.4709 40.0172 40.4242 39.064 41.5985 39.064H43.3309C44.5052 39.064 45.4584 40.0172 45.4584 41.1915V45.342C45.4584 46.5163 44.5048 47.4695 43.3309 47.4695Z" fill="#FF0000"/>
<path d="M37.6573 33.4828H36.3669C35.4137 33.4828 34.6345 32.7041 34.6345 31.7505V19.4147C34.6345 18.4615 35.4133 17.6824 36.3669 17.6824H37.6573C38.6105 17.6824 39.3896 18.4611 39.3896 19.4147V31.7505C39.3896 32.7041 38.6109 33.4828 37.6573 33.4828ZM36.3669 18.8451C36.053 18.8451 35.7972 19.101 35.7972 19.4148V31.7618C35.7972 32.0756 36.053 32.3314 36.3669 32.3314H37.6573C37.9711 32.3314 38.2269 32.0756 38.2269 31.7618V19.4148C38.2269 19.101 37.9711 18.8451 37.6573 18.8451H36.3669Z" fill="#FF0000"/>
<path d="M41.2493 31.2165H39.9589C39.0057 31.2165 38.2266 30.4377 38.2266 29.4841C38.2266 29.1586 38.4824 28.9028 38.8079 28.9028C39.1334 28.9028 39.3893 29.1586 39.3893 29.4841C39.3893 29.798 39.6451 30.0538 39.9589 30.0538H41.2493C41.5632 30.0538 41.819 29.798 41.819 29.4841V21.6828C41.819 21.369 41.5632 21.1131 41.2493 21.1131H39.9589C39.6451 21.1131 39.3893 21.369 39.3893 21.6828C39.3893 22.0083 39.1334 22.2642 38.8079 22.2642C38.4824 22.2642 38.2266 22.0083 38.2266 21.6828C38.2266 20.7296 39.0053 19.9504 39.9589 19.9504H41.2493C42.2025 19.9504 42.9817 20.7292 42.9817 21.6828V29.4841C42.9817 30.4377 42.2029 31.2165 41.2493 31.2165Z" fill="#FF0000"/>
<path d="M44.8416 29.6468H43.5512C42.598 29.6468 41.8188 28.868 41.8188 27.9144C41.8188 27.5889 42.0747 27.3331 42.4002 27.3331C42.7257 27.3331 42.9815 27.5889 42.9815 27.9144C42.9815 28.2283 43.2374 28.4841 43.5512 28.4841H44.8416C45.1554 28.4841 45.4113 28.2283 45.4113 27.9144V23.2524C45.4113 22.9385 45.1554 22.6827 44.8416 22.6827H43.5512C43.2374 22.6827 42.9815 22.9385 42.9815 23.2524C42.9815 23.5779 42.7257 23.8337 42.4002 23.8337C42.0747 23.8337 41.8188 23.5779 41.8188 23.2524C41.8188 22.2992 42.5976 21.52 43.5512 21.52H44.8416C45.7948 21.52 46.574 22.2988 46.574 23.2524V27.9144C46.574 28.868 45.7952 29.6468 44.8416 29.6468Z" fill="#FF0000"/>
<path d="M49.3296 28.1932H45.993C45.6674 28.1932 45.4116 27.9373 45.4116 27.6118C45.4116 27.2863 45.6674 27.0305 45.993 27.0305H48.7482V24.1241H45.993C45.6674 24.1241 45.4116 23.8683 45.4116 23.5428C45.4116 23.2172 45.6674 22.9614 45.993 22.9614H49.3296C49.6552 22.9614 49.911 23.2172 49.911 23.5428V27.6119C49.911 27.9374 49.6552 28.1932 49.3296 28.1932Z" fill="#FF0000"/>
</svg>
