<svg width="41" height="50" viewBox="0 0 41 50" fill="none" xmlns="http://www.w3.org/2000/svg">
<path d="M25.8951 45.6351C25.8951 46.2119 25.4258 46.6793 24.8469 46.6793H22.5068C21.928 46.6793 21.4589 46.2122 21.4585 45.6357L21.4463 24.1741C21.4459 23.5974 21.915 23.1297 22.494 23.1294C23.0727 23.1294 23.5425 23.5964 23.5428 24.173L23.5546 44.5908H24.847C25.4258 44.5909 25.8951 45.0584 25.8951 45.6351ZM28.0693 35.4504C28.5925 35.2037 28.816 34.5812 28.5685 34.0599L27.8527 32.5531L27.776 31.2641C27.4525 25.8062 27.2572 22.5119 26.6198 20.3877C25.897 17.9791 24.5368 16.9515 22.0716 16.9515H18.928C16.6379 16.9515 15.225 18.0195 14.4812 20.3124C13.8516 22.2535 13.6555 25.1663 13.384 29.1975C13.3126 30.2575 13.239 31.3514 13.1503 32.5459L12.4311 34.06C12.1835 34.5813 12.4069 35.2037 12.9303 35.4504C13.0752 35.5187 13.2277 35.551 13.3779 35.551C13.7706 35.551 14.1471 35.3302 14.3263 34.9532L15.129 33.2636C15.1841 33.1476 15.2173 33.0225 15.2268 32.8945C15.3225 31.6167 15.4005 30.4579 15.476 29.3373C16.0558 20.7273 16.3904 19.0399 18.9281 19.0399H22.0718C23.5886 19.0399 24.1581 19.4764 24.6112 20.9858C25.1788 22.8775 25.3795 26.2628 25.6833 31.3872L25.772 32.8791C25.78 33.0122 25.8136 33.1427 25.8709 33.2635L26.6735 34.9531C26.9211 35.4743 27.5462 35.6971 28.0693 35.4504ZM4.30696 13.104C4.88595 13.104 5.35522 12.6365 5.35522 12.0598V4.28333C5.54694 4.10523 6.46685 3.44181 9.9649 2.84987C12.8665 2.35886 16.608 2.08841 20.5002 2.08841C24.3924 2.08841 28.1339 2.35886 31.0353 2.84987C34.5331 3.44193 35.4532 4.10523 35.6448 4.28333V12.0598C35.6448 12.6365 36.114 13.104 36.693 13.104C37.272 13.104 37.7413 12.6365 37.7413 12.0598V4.14897C37.7413 2.66319 36.0163 1.66992 32.1485 0.928182C29.0266 0.329621 24.8899 0 20.5001 0C16.1104 0 11.9735 0.329621 8.85165 0.928182C4.98356 1.66992 3.25858 2.66319 3.25858 4.14897V12.0599C3.2587 12.6365 3.72797 13.104 4.30696 13.104ZM41 24.7698C41 24.1931 40.5307 23.7256 39.9517 23.7256H31.1372C30.5583 23.7256 30.089 24.1931 30.089 24.7698C30.089 25.3466 30.5583 25.814 31.1372 25.814H35.6463C35.6452 25.8328 35.6448 25.8516 35.6448 25.8706V30.9877C35.6448 31.5645 36.114 32.0319 36.693 32.0319C37.272 32.0319 37.7413 31.5645 37.7413 30.9877V25.8706C37.7413 25.8516 37.7407 25.8328 37.7398 25.814H39.9516C40.5306 25.814 41 25.3466 41 24.7698ZM30.1173 16.8587C30.2508 17.42 30.8158 17.7673 31.379 17.6338L35.6448 16.6265V21.5539C35.6448 22.1306 36.114 22.5981 36.693 22.5981C37.272 22.5981 37.7413 22.1306 37.7413 21.5539V16.4068C37.7413 16.3144 37.7292 16.225 37.7067 16.1396L40.0058 15.5966C40.569 15.4636 40.9175 14.9009 40.7839 14.3397C40.6505 13.7786 40.0858 13.4314 39.5222 13.5646L30.8954 15.6018C30.3322 15.7348 29.9837 16.2975 30.1173 16.8587ZM40.0059 33.9431L36.9563 33.2229C36.9428 33.2194 36.929 33.2161 36.9153 33.2131L31.379 31.9057C30.8157 31.7724 30.2506 32.1197 30.1173 32.6808C29.9837 33.242 30.3321 33.8047 30.8954 33.9377L35.6448 35.0594V43.5981C35.2464 43.4313 34.8367 43.296 34.4599 43.1828C32.7794 42.6784 30.4318 42.2758 27.6706 42.0183C27.0934 41.966 26.5832 42.3865 26.5292 42.9607C26.4753 43.5349 26.8989 44.044 27.4752 44.0977C32.6027 44.5757 34.8019 45.413 35.4724 45.8484C35.0615 46.1204 33.933 46.6598 31.0351 47.1502C28.1336 47.6411 24.392 47.9117 20.4998 47.9117C16.6076 47.9117 12.866 47.6413 9.96443 47.1502C7.06669 46.6598 5.93817 46.1203 5.52714 45.8484C6.19744 45.413 8.39647 44.5756 13.5247 44.0975C14.1011 44.0436 14.5246 43.5346 14.4707 42.9604C14.4168 42.3862 13.9059 41.964 13.3292 42.0181C10.568 42.2756 8.22024 42.6783 6.53976 43.1827C6.1632 43.2957 5.75333 43.4313 5.35499 43.5979V35.0595L10.1044 33.9377C10.6677 33.8047 11.0162 33.2419 10.8826 32.6808C10.749 32.1196 10.1839 31.7721 9.62084 31.9057L4.08706 33.2127C4.0718 33.2159 4.05654 33.2196 4.04152 33.2235L0.994452 33.9431C0.431185 34.0761 0.0826961 34.6389 0.216291 35.2C0.349887 35.7612 0.9149 36.1083 1.47805 35.9752L3.2587 35.5547V45.822C3.25858 45.8316 3.25847 45.8414 3.25847 45.851C3.25847 47.3368 4.98344 48.3301 8.85153 49.0718C11.9734 49.6704 16.1102 50 20.4999 50C24.8897 50 29.0266 49.6704 32.1485 49.0718C36.0164 48.3301 37.7414 47.3368 37.7414 45.851V35.5546L39.5223 35.9752C40.0858 36.1091 40.6507 35.7612 40.7841 35.2C40.9177 34.6389 40.5692 34.0761 40.0059 33.9431ZM0.994452 15.5966L3.29329 16.1396C3.2707 16.2249 3.2587 16.3144 3.2587 16.4068V21.5539C3.2587 22.1306 3.72797 22.5981 4.30696 22.5981C4.88595 22.5981 5.35522 22.1306 5.35522 21.5539V16.6264L9.62107 17.6338C10.1847 17.7671 10.7494 17.4199 10.8828 16.8587C11.0163 16.2975 10.6679 15.7348 10.1047 15.6018L1.47805 13.5646C0.915017 13.4315 0.34977 13.7784 0.216291 14.3397C0.0826961 14.9009 0.431185 15.4635 0.994452 15.5966ZM18.5054 23.1295C17.9268 23.1295 17.4575 23.5966 17.4572 24.1731L17.4454 44.5909H16.153C15.574 44.5909 15.1048 45.0584 15.1048 45.6351C15.1048 46.2119 15.574 46.6793 16.153 46.6793H18.4931C19.0719 46.6793 19.541 46.2122 19.5414 45.6357L19.5537 24.1741C19.5541 23.5974 19.0844 23.1298 18.5054 23.1295V23.1295ZM1.04826 25.814H3.26021C3.25916 25.8328 3.2587 25.8516 3.2587 25.8706V30.9877C3.2587 31.5645 3.72797 32.0319 4.30696 32.0319C4.88595 32.0319 5.35522 31.5645 5.35522 30.9877V25.8706C5.35522 25.8516 5.35476 25.8328 5.35371 25.814H9.86287C10.4419 25.814 10.9111 25.3466 10.9111 24.7698C10.9111 24.1931 10.4419 23.7256 9.86287 23.7256H1.04826C0.469272 23.7256 0 24.1931 0 24.7698C0 25.3466 0.469389 25.814 1.04826 25.814ZM20.1817 15.2769C18.0497 14.6004 16.6172 12.6475 16.6172 10.4173C16.6172 8.18714 18.0497 6.23413 20.1817 5.55761C20.3887 5.49194 20.6111 5.49194 20.818 5.55761C22.9501 6.23413 24.3825 8.18703 24.3825 10.4173C24.3825 12.6475 22.9501 14.6004 20.818 15.2769C20.7145 15.3098 20.6072 15.3263 20.4999 15.3263C20.3927 15.3263 20.2853 15.3098 20.1817 15.2769ZM20.4999 13.1664C21.5808 12.6862 22.2859 11.62 22.2859 10.4173C22.2859 9.21453 21.5808 8.14828 20.4999 7.66818C19.419 8.14851 18.7137 9.21453 18.7137 10.4173C18.7137 11.62 19.419 12.6862 20.4999 13.1664Z" fill="#FF0000"/>
</svg>
